<?xml version="1.0" encoding="utf-8"?>
<!-- Generator: Adobe Illustrator 26.1.0, SVG Export Plug-In . SVG Version: 6.00 Build 0)  -->
<svg version="1.1" id="Capa_1" xmlns="http://www.w3.org/2000/svg" xmlns:xlink="http://www.w3.org/1999/xlink" x="0px" y="0px"
	 viewBox="0 0 14 16" style="enable-background:new 0 0 14 16;" xml:space="preserve">
<style type="text/css">
	.st0{fill:#FFFFFF;}
</style>
<path class="st0" d="M11.9,3C10.6,1.7,8.9,1,7,1C3.2,1,0.1,4.1,0.1,7.9c0,1.2,0.3,2.4,0.9,3.5L0,15l3.7-1c1,0.6,2.2,0.8,3.3,0.8h0
	c3.8,0,7-3.1,7-6.9C14,6.1,13.2,4.3,11.9,3z M7,13.7c-1,0-2.1-0.3-2.9-0.8l-0.2-0.1l-2.2,0.6l0.6-2.1L2.1,11c-0.6-0.9-0.9-2-0.9-3.1
	c0-3.2,2.6-5.8,5.8-5.8c1.5,0,3,0.6,4.1,1.7s1.8,2.5,1.8,4.1C12.8,11.1,10.2,13.7,7,13.7z M10.2,9.4C10,9.3,9.1,8.9,9,8.8
	C8.8,8.8,8.7,8.7,8.6,8.9C8.5,9.1,8.1,9.5,8,9.6c-0.1,0.1-0.2,0.1-0.4,0C6.6,9.1,6,8.7,5.3,7.6C5.1,7.3,5.5,7.3,5.8,6.6
	c0.1-0.1,0-0.2,0-0.3S5.4,5.4,5.3,5C5.1,4.7,5,4.7,4.9,4.7c-0.1,0-0.2,0-0.3,0c-0.1,0-0.3,0-0.5,0.2C3.9,5.1,3.5,5.5,3.5,6.4
	s0.6,1.7,0.7,1.8c0.1,0.1,1.2,1.9,3,2.6c1.1,0.5,1.5,0.5,2.1,0.4c0.3-0.1,1-0.4,1.2-0.8s0.1-0.8,0.1-0.8C10.4,9.5,10.3,9.5,10.2,9.4
	z"/>
</svg>
